<?xml version="1.0" standalone="no"?> <!DOCTYPE svg PUBLIC "-//W3C//DTD SVG 1.0//EN" "http://www.w3.org/TR/2001/REC-SVG-20010904/DTD/svg10.dtd" > <svg xmlns="http://www.w3.org/2000/svg" width="100%" height="100%">
<defs >
<font id="seguibl" horiz-adv-x="1283" ><font-face
    font-family="SegoeUIBlack"
    units-per-em="2048"
    panose-1="2 11 10 2 4 2 4 2 2 3"
    ascent="2188"
    descent="-578"
    alphabetic="0" />
<missing-glyph horiz-adv-x="1322" d="M166 0V1398H1156V0H166ZM314 148H1008V1250H314V148Z" />
<glyph unicode=" " glyph-name="space" horiz-adv-x="569" />
<glyph unicode="!" glyph-name="exclam" horiz-adv-x="750" d="M543 483H201L147 1434H596L543 483ZM612 178Q612 89 548 32T375 -25Q270 -25 204 33T137 178Q137 266 201 320T375 375Q481 375 546 321T612 178Z" />
<glyph unicode="&quot;" glyph-name="quotedbl" horiz-adv-x="1188" d="M965 1024H707L655 1468H1014L965 1024ZM481 1024H219L174 1468H530L481 1024Z" />
<glyph unicode="#" glyph-name="numbersign" horiz-adv-x="1227" d="M1126 864H1004L952 643H1094L1036 408H901L834 106H586L649 408H430L365 106H113L176 408H49L98 643H227L279 864H135L182 1100H328L395 1417H651L584 1100H799L866 1417H1122L1055 1100H1178L1126
864ZM530 864L479 643H698L750 864H530Z" />
<glyph unicode="$" glyph-name="dollar" horiz-adv-x="1227" d="M1100 442Q1100 348 1059 267T939 125T745 35V-195H508V8Q396 10 282 35T133 90V465Q340 313 535 313Q588 313 618 339T649 410Q649 448 630 470T568 517T438 575Q115 703 115 987Q115 1152 219
1264T508 1409V1608H745V1419Q922 1409 1030 1374V1010Q953 1058 858 1087T670 1116Q615 1116 581 1091T547 1026Q547 978 587 945T719 874Q917 793 1008 689T1100 442Z" />
<glyph unicode="%" glyph-name="percent" horiz-adv-x="1839" d="M1737 367Q1737 192 1634 86T1356 -20Q1194 -20 1097 79T999 340Q999 518 1103 622T1380 727Q1546 727 1641 632T1737 367ZM1475 354Q1475 425 1448 465T1374 506Q1322 506 1294 464T1266 348Q1266
279 1291 240T1368 201Q1420 201 1447 241T1475 354ZM618 0H303L1225 1434H1540L618 0ZM838 1092Q838 914 735 810T459 705Q297 705 200 804T102 1065Q102 1241 203 1347T481 1454Q647 1454 742 1357T838 1092ZM575 1081Q575 1150 550 1190T477 1231Q425 1231 397
1189T369 1073Q369 1004 394 965T471 926Q521 926 548 966T575 1081Z" />
<glyph unicode="&amp;" glyph-name="ampersand" horiz-adv-x="1513" d="M1081 -2L997 96Q930 44 810 10T578 -25Q333 -25 197 81T61 379Q61 492 143 595T393 782Q250 940 250 1098Q250 1258 375 1358T702 1458Q893 1458 1009 1369T1126 1130Q1126 1011 1057 925T838
770L1042 539Q1087 629 1087 782H1413Q1413 637 1372 522T1239 311L1526 -2H1081ZM797 1108Q797 1151 766 1181T692 1212Q642 1212 612 1185T582 1110Q582 1079 600 1047T686 938Q748 976 772 1016T797 1108ZM543 608Q501 588 473 539T444 428Q444 343 500 292T639
240Q690 240 737 256T817 299L543 608Z" />
<glyph unicode="&apos;" glyph-name="quotesingle" horiz-adv-x="705" d="M481 1026H219L174 1468H530L481 1026Z" />
<glyph unicode="(" glyph-name="parenleft" horiz-adv-x="862" d="M512 -326Q340 -140 258 74T176 549Q176 1036 510 1434H846Q696 1224 624 1006T551 549Q551 302 624 91T848 -326H512Z" />
<glyph unicode=")" glyph-name="parenright" horiz-adv-x="862" d="M686 549Q686 286 604 72T350 -326H14Q313 75 313 549Q313 782 242 1000T16 1434H352Q686 1038 686 549Z" />
<glyph unicode="*" glyph-name="asterisk" horiz-adv-x="991" d="M649 989L856 795L625 637L496 887L367 639L135 795L342 989L61 1016L152 1272L403 1153L344 1434H647L588 1153L840 1272L930 1016L649 989Z" />
<glyph unicode="+" glyph-name="plus" horiz-adv-x="1464" d="M856 455V82H608V455H238V702H608V1073H856V702H1229V455H856Z" />
<glyph unicode="," glyph-name="comma" horiz-adv-x="655" d="M387 -238H43L145 272H530L387 -238Z" />
<glyph unicode="-" glyph-name="hyphen" horiz-adv-x="834" d="M143 393V680H690V393H143Z" />
<glyph unicode="." glyph-name="period" horiz-adv-x="655" d="M565 178Q565 87 501 31T324 -25Q221 -25 156 33T90 178Q90 266 154 320T328 375Q434 375 499 321T565 178Z" />
<glyph unicode="/" glyph-name="slash" horiz-adv-x="987" d="M307 -238H-68L641 1434H1016L307 -238Z" />
<glyph unicode="0" glyph-name="zero" horiz-adv-x="1227" d="M1163 729Q1163 360 1023 168T612 -25Q336 -25 200 152T63 700Q63 1072 210 1265T637 1458Q1163 1458 1163 729ZM743 729Q743 943 713 1045T616 1147Q485 1147 485 709Q485 494 515 391T612 287Q743
287 743 729Z" />
<glyph unicode="1" glyph-name="one" horiz-adv-x="990" d="M395 0V1032Q325 991 250 970T80 938V1258Q215 1281 331 1330T570 1466H821V0H395Z" />
<glyph unicode="2" glyph-name="two" horiz-adv-x="1227" d="M90 0V115Q90 237 120 327T214 496T439 699Q553 789 590 828T646 905T665 985Q665 1128 493 1128Q318 1128 162 1001V1350Q281 1410 384 1433T597 1456Q831 1456 959 1345T1087 1032Q1087 877 1020
769T771 544Q632 454 587 413T540 342H1100V0H90Z" />
<glyph unicode="3" glyph-name="three" horiz-adv-x="1227" d="M1080 410Q1080 203 930 89T501 -25Q397 -25 295 -8T120 39V373Q187 333 273 310T447 287Q549 287 603 323T658 428Q658 497 591 536T404 575H266V889H388Q509 889 566 926T624 1024Q624 1081 581
1114T447 1147Q308 1147 169 1067V1386Q343 1458 535 1458Q773 1458 908 1361T1043 1092Q1043 958 971 867T767 748V743Q912 723 996 633T1080 410Z" />
<glyph unicode="4" glyph-name="four" horiz-adv-x="1271" d="M1028 1434V530H1231V246H1027V0H652V246H45V541Q205 725 363 968T621 1434H1028ZM651 530V950Q559 747 398 530H651Z" />
<glyph unicode="5" glyph-name="five" horiz-adv-x="1227" d="M1090 485Q1090 338 1021 222T820 40T511 -25Q412 -25 305 -8T128 35V367Q278 287 445 287Q555 287 611 327T668 440Q668 598 406 598Q275 598 163 573L217 1434H1027V1102H547L533 901Q591 907 642
907Q852 907 971 794T1090 485Z" />
<glyph unicode="6" glyph-name="six" horiz-adv-x="1227" d="M1167 496Q1167 352 1101 233T913 45T643 -23Q380 -23 238 152T96 647Q96 889 182 1076T423 1361T793 1458Q957 1458 1057 1421V1087Q958 1147 823 1147Q686 1147 601 1058T506 821H512Q613 944 801
944Q970 944 1068 820T1167 496ZM762 477Q762 556 732 601T639 647Q580 647 548 600T516 471Q516 395 550 346T639 297Q696 297 729 345T762 477Z" />
<glyph unicode="7" glyph-name="seven" horiz-adv-x="1227" d="M273 0Q303 197 358 367T489 695T722 1102H98V1434H1147V1182Q1004 927 931 756T804 401T716 0H273Z" />
<glyph unicode="8" glyph-name="eight" horiz-adv-x="1227" d="M67 390Q67 522 134 612T331 759Q222 814 167 900T112 1089Q112 1191 177 1276T359 1410T617 1458Q764 1458 881 1411T1062 1278T1126 1088Q1126 987 1067 899T895 757Q1035 696 1097 606T1159 393Q1159
273 1090 177T895 29T613 -23Q371 -23 219 93T67 390ZM454 425Q454 348 498 304T614 260Q687 260 731 307T775 425Q775 497 729 544T614 592Q546 592 500 546T454 425ZM490 1040Q490 981 527 936T620 891Q676 891 713 936T751 1040Q751 1104 713 1147T620 1190Q564
1190 527 1147T490 1040Z" />
<glyph unicode="9" glyph-name="nine" horiz-adv-x="1227" d="M1141 776Q1141 400 966 188T483 -25Q294 -25 154 31V360Q196 330 277 309T424 287Q574 287 653 370T735 614H729Q635 494 455 494Q348 494 259 549T119 704T68 932Q68 1090 134 1210T322 1394T602
1458Q766 1458 891 1373T1078 1137T1141 776ZM719 963Q719 1036 686 1087T598 1139Q544 1139 509 1096T473 961Q473 876 508 832T596 788Q656 788 687 836T719 963Z" />
<glyph unicode=":" glyph-name="colon" horiz-adv-x="655" d="M565 827Q565 736 501 681T324 625Q222 625 156 683T90 827Q90 915 154 969T328 1024Q434 1024 499 970T565 827ZM565 178Q565 87 501 31T324 -25Q221 -25 156 33T90 178Q90 266 154 320T328 375Q434
375 499 321T565 178Z" />
<glyph unicode=";" glyph-name="semicolon" horiz-adv-x="655" d="M575 827Q575 736 511 681T334 625Q232 625 166 683T100 827Q100 915 164 969T338 1024Q444 1024 509 970T575 827ZM387 -238H43L145 272H530L387 -238Z" />
<glyph unicode="&lt;" glyph-name="less" horiz-adv-x="1464" d="M238 436V676L1229 1083V791L526 555V551L1229 315V23L238 436Z" />
<glyph unicode="=" glyph-name="equal" horiz-adv-x="1464" d="M238 666V913H1229V666H238ZM238 236V483H1229V236H238Z" />
<glyph unicode="&gt;" glyph-name="greater" horiz-adv-x="1464" d="M238 43V338L938 571V575L238 809V1104L1229 696V457L238 43Z" />
<glyph unicode="?" glyph-name="question" horiz-adv-x="866" d="M907 1100Q907 878 692 709Q619 651 589 607T559 498V463H223V551Q223 734 344 838Q423 905 445 930T477 978T487 1032Q487 1070 454 1096T367 1122Q206 1122 29 993V1386Q94 1423 204 1450T403
1477Q648 1477 777 1381T907 1100ZM641 178Q641 89 577 32T403 -25Q298 -25 232 33T166 178Q166 266 230 320T403 375Q510 375 575 321T641 178Z" />
<glyph unicode="@" glyph-name="at" horiz-adv-x="1944" d="M1843 766Q1843 593 1777 460T1590 254T1321 180Q1233 180 1165 223T1081 330H1075Q1040 263 980 222T848 180Q707 180 623 282T539 561Q539 706 586 820T726 1003T918 1073Q1054 1073 1098 965H1102L1110
1051H1411Q1401 959 1384 745T1366 485V465Q1366 440 1379 423T1417 406Q1477 406 1515 496T1554 762Q1554 899 1496 1005T1327 1171T1061 1231Q878 1231 727 1144T486 902T397 569Q397 310 552 171T993 31Q1091 31 1200 56T1395 123V-113Q1218 -188 948 -188Q694
-188 498 -91T201 179T100 584Q100 818 221 1022T552 1339T1028 1452Q1276 1452 1460 1370T1743 1131T1843 766ZM1092 715Q1092 780 1063 817T985 854Q922 854 879 769T836 569Q836 490 861 445T934 399Q1005 399 1048 487T1092 715Z" />
<glyph unicode="A" glyph-name="A" horiz-adv-x="1536" d="M1040 0L977 264H549L481 0H14L508 1434H1044L1509 0H1040ZM768 1122H758Q756 1098 744 1043T623 571H897L797 961Q776 1047 768 1122Z" />
<glyph unicode="B" glyph-name="B" horiz-adv-x="1415" d="M1366 440Q1366 229 1218 115T795 0H141V1434H750Q1321 1434 1321 1087Q1321 1012 1285 950T1176 840T1014 776V772Q1116 760 1197 712T1322 591T1366 440ZM862 1012Q862 1145 653 1145H573V874H698Q770
874 816 912T862 1012ZM907 442Q907 504 862 544T743 584H573V291H717Q805 291 856 331T907 442Z" />
<glyph unicode="C" glyph-name="C" horiz-adv-x="1290" d="M1208 39Q1030 -25 797 -25Q568 -25 402 62T149 311T61 684Q61 911 159 1088T436 1361T848 1458Q1034 1458 1208 1413V1014Q1148 1050 1065 1070T897 1090Q721 1090 620 989T518 715Q518 543 619 444T891
344Q1048 344 1208 424V39Z" />
<glyph unicode="D" glyph-name="D" horiz-adv-x="1554" d="M1493 735Q1493 517 1402 350T1140 91T748 0H141V1434H735Q1493 1434 1493 735ZM1034 731Q1034 836 992 920T870 1050T684 1096H573V338H694Q849 338 941 444T1034 731Z" />
<glyph unicode="E" glyph-name="E" horiz-adv-x="1130" d="M141 0V1434H1034V1096H573V887H1006V549H573V338H1067V0H141Z" />
<glyph unicode="F" glyph-name="F" horiz-adv-x="1108" d="M573 1096V838H999V500H573V0H141V1434H1040V1096H573Z" />
<glyph unicode="G" glyph-name="G" horiz-adv-x="1489" d="M1397 94Q1316 48 1155 12T848 -25Q471 -25 266 163T61 692Q61 920 164 1097T456 1366T899 1458Q1086 1458 1298 1405V1028Q1199 1073 1108 1090T909 1108Q731 1108 626 1001T520 707Q520 528 608 427T856
326Q930 326 965 334V539H690V866H1397V94Z" />
<glyph unicode="H" glyph-name="H" horiz-adv-x="1643" d="M1069 0V535H573V0H141V1434H573V903H1069V1434H1501V0H1069Z" />
<glyph unicode="I" glyph-name="I" horiz-adv-x="714" d="M141 0V1434H573V0H141Z" />
<glyph unicode="J" glyph-name="J" horiz-adv-x="1047" d="M922 612Q922 -25 303 -25Q253 -25 183 -13T41 23V422Q92 387 154 366T258 344Q374 344 431 415T489 637V1434H922V612Z" />
<glyph unicode="K" glyph-name="K" horiz-adv-x="1413" d="M934 0L616 606Q584 678 578 705H573V0H141V1434H573V752H578Q597 806 621 852L907 1434H1419L1012 750L1458 0H934Z" />
<glyph unicode="L" glyph-name="L" horiz-adv-x="1108" d="M141 0V1434H573V338H1067V0H141Z" />
<glyph unicode="M" glyph-name="M" horiz-adv-x="2021" d="M1454 0V786Q1454 897 1461 1030L1464 1096H1452Q1420 927 1403 862L1192 0H786L565 852Q556 884 518 1096H506Q520 760 520 676V0H141V1434H788L985 655Q992 631 1003 558T1018 444H1024Q1035 535 1059
659L1243 1434H1880V0H1454Z" />
<glyph unicode="N" glyph-name="N" horiz-adv-x="1663" d="M1143 0L637 692Q577 774 539 840H535Q541 734 541 602V0H141V1434H549L1034 776Q1043 763 1056 745T1082 708T1106 671T1124 639H1128Q1122 683 1122 791V1434H1522V0H1143Z" />
<glyph unicode="O" glyph-name="O" horiz-adv-x="1567" d="M1505 721Q1505 505 1412 335T1152 70T778 -25Q576 -25 411 66T153 323T61 698Q61 917 154 1092T415 1362T797 1458Q1003 1458 1165 1367T1416 1106T1505 721ZM1047 709Q1047 886 979 988T793 1090Q664
1090 592 992T520 715Q520 540 591 442T786 344Q861 344 921 388T1014 514T1047 709Z" />
<glyph unicode="P" glyph-name="P" horiz-adv-x="1343" d="M1313 961Q1313 814 1239 700T1026 524T705 461H573V0H141V1434H729Q1032 1434 1172 1319T1313 961ZM856 946Q856 1034 805 1079T655 1124H573V770H670Q856 770 856 946Z" />
<glyph unicode="Q" glyph-name="Q" horiz-adv-x="1567" d="M1505 721Q1505 388 1290 173L1669 -193H1127L945 -8Q865 -25 778 -25Q576 -25 411 66T153 323T61 698Q61 917 154 1092T415 1362T797 1458Q1003 1458 1165 1367T1416 1106T1505 721ZM1047 709Q1047 886
979 988T793 1090Q664 1090 592 992T520 715Q520 540 591 442T786 344Q903 344 975 443T1047 709Z" />
<glyph unicode="R" glyph-name="R" horiz-adv-x="1397" d="M885 0L778 309Q747 400 698 452T590 504H573V0H141V1434H715Q1016 1434 1159 1336T1303 1040Q1303 892 1220 792T971 647V643Q1062 615 1122 552T1231 365L1372 0H885ZM844 979Q844 1051 800 1093T662
1135H573V807H651Q738 807 791 856T844 979Z" />
<glyph unicode="S" glyph-name="S" horiz-adv-x="1171" d="M1137 434Q1137 291 1061 185T846 27T514 -25Q289 -25 102 51V444Q192 378 301 338T504 297Q575 297 614 322T653 397Q653 432 634 458T575 508T428 571Q82 704 82 1001Q82 1209 240 1333T664 1458Q739
1458 802 1452T916 1437T1061 1403V1038Q880 1137 705 1137Q633 1137 589 1110T545 1036Q545 991 580 962T729 885Q952 795 1044 688T1137 434Z" />
<glyph unicode="T" glyph-name="T" horiz-adv-x="1303" d="M866 1096V0H432V1096H31V1434H1272V1096H866Z" />
<glyph unicode="U" glyph-name="U" horiz-adv-x="1516" d="M1391 655Q1391 310 1234 143T748 -25Q442 -25 284 142T125 647V1434H559V631Q559 493 610 419T758 344Q855 344 905 414T956 621V1434H1391V655Z" />
<glyph unicode="V" glyph-name="V" horiz-adv-x="1438" d="M958 0H473L10 1434H475L694 551Q720 444 723 391H733Q739 458 764 557L977 1434H1427L958 0Z" />
<glyph unicode="W" glyph-name="W" horiz-adv-x="2157" d="M1774 0H1315L1116 817Q1107 852 1096 991H1092Q1077 868 1063 817L848 0H362L20 1434H494L614 590Q617 574 623 497L629 414H635Q637 440 647 502T666 596L887 1434H1358L1542 584L1555 499L1565 416H1569L1572
451L1585 590L1710 1434H2136L1774 0Z" />
<glyph unicode="X" glyph-name="X" horiz-adv-x="1438" d="M930 0L752 393Q735 430 730 465T721 524H717Q711 500 703 461T680 385L514 0H0L430 715L39 1434H561L700 1055Q719 1002 735 915H739Q755 1013 776 1057L938 1434H1419L1016 723L1438 0H930Z" />
<glyph unicode="Y" glyph-name="Y" horiz-adv-x="1331" d="M874 498V0H442V492L0 1434H496L651 983Q667 937 673 903T688 834H692Q705 925 721 975L874 1434H1331L874 498Z" />
<glyph unicode="Z" glyph-name="Z" horiz-adv-x="1313" d="M616 338H1264V0H61V303L723 1096H102V1434H1243V1133L616 338Z" />
<glyph unicode="[" glyph-name="bracketleft" horiz-adv-x="862" d="M233 -326V1434H776V1176H575V-68H776V-326H233Z" />
<glyph unicode="\" glyph-name="backslash" horiz-adv-x="987" d="M719 -238L20 1434H393L1090 -238H719Z" />
<glyph unicode="]" glyph-name="bracketright" horiz-adv-x="862" d="M86 -326V-68H287V1176H86V1434H629V-326H86Z" />
<glyph unicode="^" glyph-name="asciicircum" horiz-adv-x="1464" d="M971 629L735 1182H729L494 629H188L612 1458H852L1276 629H971Z" />
<glyph unicode="_" glyph-name="underscore" horiz-adv-x="850" d="M0 -297V-178H850V-297H0Z" />
<glyph unicode="`" glyph-name="grave" horiz-adv-x="711" d="M385 1186L29 1507H387L686 1186H385Z" />
<glyph unicode="a" glyph-name="a" horiz-adv-x="1149" d="M670 0V156H666Q564 -25 354 -25Q209 -25 127 61T45 291Q45 593 416 641L670 674Q670 724 625 756T504 788Q332 788 141 690V967Q224 1003 349 1026T563 1049Q824 1049 941 938T1059 565V0H670ZM418 348Q418
306 444 279T520 252Q587 252 628 302T670 430V469L526 449Q418 431 418 348Z" />
<glyph unicode="b" glyph-name="b" horiz-adv-x="1315" d="M1257 543Q1257 375 1202 246T1044 46T813 -25Q714 -25 644 11T532 106H528V0H102V1516H528V885H532Q582 961 667 1005T856 1049Q1050 1049 1153 920T1257 543ZM825 530Q825 633 786 685T672 737Q607
737 564 683T520 541V479Q520 391 559 339T664 287Q741 287 783 350T825 530Z" />
<glyph unicode="c" glyph-name="c" horiz-adv-x="1014" d="M946 29Q905 5 817 -10T614 -25Q452 -25 325 40T127 224T57 489Q57 665 131 790T344 982T664 1049Q764 1049 843 1036T946 1006V674Q914 699 854 718T743 737Q618 737 554 678T489 510Q489 404 552 346T727
287Q846 287 946 344V29Z" />
<glyph unicode="d" glyph-name="d" horiz-adv-x="1315" d="M786 0V119H782Q731 52 649 14T487 -25Q356 -25 256 39T107 220T57 494Q57 657 116 783T282 979T522 1049Q585 1049 638 1031T731 983T782 922H786V1516H1212V0H786ZM795 543Q795 635 755 686T645 737Q576
737 533 674T489 504Q489 287 639 287Q710 287 752 345T795 516V543Z" />
<glyph unicode="e" glyph-name="e" horiz-adv-x="1147" d="M469 391Q480 325 545 288T717 250Q866 250 999 307V37Q844 -25 623 -25Q355 -25 206 112T57 489Q57 654 122 780T316 977T600 1049Q759 1049 872 987T1043 813T1102 551V391H469ZM725 614Q725 791 598
791Q545 791 509 743T467 614H725Z" />
<glyph unicode="f" glyph-name="f" horiz-adv-x="883" d="M891 1206Q825 1229 768 1229Q697 1229 663 1193T629 1094V1024H866V729H629V0H203V729H31V1024H203V1118Q203 1243 261 1338T429 1487T698 1540Q812 1540 891 1518V1206Z" />
<glyph unicode="g" glyph-name="g" horiz-adv-x="1315" d="M1212 143Q1212 -152 1027 -316T485 -481Q389 -481 299 -466T170 -432V-98Q234 -138 320 -162T473 -186Q616 -186 702 -117T788 66V129H784Q738 59 658 17T485 -25Q287 -25 172 112T57 492Q57 658 117
785T284 980T520 1049Q697 1049 784 918H788V1024H1212V143ZM795 541Q795 631 755 684T647 737Q575 737 532 673T489 502Q489 403 525 345T639 287Q712 287 753 346T795 506V541Z" />
<glyph unicode="h" glyph-name="h" horiz-adv-x="1264" d="M762 0V584Q762 737 645 737Q588 737 558 694T528 582V0H102V1516H528V885H532Q587 964 665 1006T834 1049Q1000 1049 1087 943T1174 629V0H762Z" />
<glyph unicode="i" glyph-name="i" horiz-adv-x="631" d="M553 1300Q553 1210 488 1154T315 1098Q211 1098 145 1156T78 1300Q78 1388 142 1442T315 1497Q422 1497 487 1443T553 1300ZM102 0V1024H528V0H102Z" />
<glyph unicode="j" glyph-name="j" horiz-adv-x="631" d="M553 1300Q553 1210 488 1154T315 1098Q211 1098 145 1156T78 1300Q78 1388 142 1442T315 1497Q422 1497 487 1443T553 1300ZM528 -10Q528 -145 475 -256T319 -424T74 -481Q-4 -481 -96 -451V-139Q-40
-170 6 -170Q59 -170 80 -135T102 -27V1024H528V-10Z" />
<glyph unicode="k" glyph-name="k" horiz-adv-x="1214" d="M760 0L532 526H528V0H102V1516H528V543H532L739 1024H1219L942 555L1235 0H760Z" />
<glyph unicode="l" glyph-name="l" horiz-adv-x="631" d="M102 0V1516H528V0H102Z" />
<glyph unicode="m" glyph-name="m" horiz-adv-x="1946" d="M1430 0V590Q1430 664 1404 700T1317 737Q1258 737 1225 693T1192 569V0H766V580Q766 737 659 737Q594 737 561 692T528 561V0H102V1024H528V862H532Q556 905 608 949T727 1021T870 1049Q979 1049 1053
1006T1178 870Q1232 956 1322 1002T1522 1049Q1683 1049 1769 944T1855 641V0H1430Z" />
<glyph unicode="n" glyph-name="n" horiz-adv-x="1282" d="M766 0V559Q766 654 738 695T645 737Q590 737 559 694T528 584V0H102V1024H528V864H532Q583 952 669 1000T856 1049Q1192 1049 1192 625V0H766Z" />
<glyph unicode="o" glyph-name="o" horiz-adv-x="1298" d="M1241 530Q1241 271 1085 123T647 -25Q368 -25 213 119T57 518Q57 681 130 801T338 985T649 1049Q831 1049 964 982T1169 796T1241 530ZM809 528Q809 737 649 737Q489 737 489 518Q489 287 651 287Q809
287 809 528Z" />
<glyph unicode="p" glyph-name="p" horiz-adv-x="1315" d="M1257 543Q1257 375 1200 246T1039 46T805 -25Q625 -25 532 106H528V-471H102V1024H528V885H532Q583 962 664 1005T848 1049Q1046 1049 1151 917T1257 543ZM825 530Q825 627 788 682T672 737Q604 737
562 679T520 520V500Q520 403 556 345T664 287Q741 287 783 350T825 530Z" />
<glyph unicode="q" glyph-name="q" horiz-adv-x="1315" d="M786 -471V117H782Q734 53 653 14T485 -25Q358 -25 262 35T111 209T57 492Q57 658 117 785T284 980T520 1049Q695 1049 782 918H786V1024H1212V-471H786ZM795 539Q795 632 755 684T647 737Q577 737 533
673T489 502Q489 403 526 345T637 287Q711 287 753 345T795 506V539Z" />
<glyph unicode="r" glyph-name="r" horiz-adv-x="893" d="M872 659Q848 670 807 679T739 688Q528 688 528 444V0H102V1024H528V844H532Q571 941 643 991T811 1042Q846 1042 872 1030V659Z" />
<glyph unicode="s" glyph-name="s" horiz-adv-x="989" d="M934 340Q934 166 802 71T432 -25Q363 -25 262 -11T96 23V322Q285 238 412 238Q537 238 537 303Q537 330 508 347T356 406Q220 449 158 520T96 705Q96 864 222 956T578 1049Q712 1049 862 1010V723Q799
750 724 768T598 786Q556 786 531 772T506 733Q506 704 533 686T641 643Q798 597 866 525T934 340Z" />
<glyph unicode="t" glyph-name="t" horiz-adv-x="854" d="M823 14Q794 0 728 -12T569 -25Q391 -25 291 73T190 352V729H29V1024H190V1225L610 1341V1024H823V729H610V422Q610 287 717 287Q767 287 823 309V14Z" />
<glyph unicode="u" glyph-name="u" horiz-adv-x="1282" d="M754 0V158H750Q697 85 655 51T559 -4T434 -25Q266 -25 178 84T90 406V1024H516V438Q516 287 629 287Q691 287 722 328T754 444V1024H1180V0H754Z" />
<glyph unicode="v" glyph-name="v" horiz-adv-x="1204" d="M848 0H342L0 1024H444L569 465Q599 330 602 262H608Q610 282 613 303T762 1024H1204L848 0Z" />
<glyph unicode="w" glyph-name="w" horiz-adv-x="1731" d="M1430 0H987L885 498Q866 588 866 657H860Q849 551 838 504L727 0H285L14 1024H442L530 428L545 295H551Q564 412 569 432L700 1024H1106L1219 432L1228 361L1233 297H1239L1242 326L1333 1024H1716L1430 0Z" />
<glyph unicode="x" glyph-name="x" horiz-adv-x="1272" d="M944 545L1274 0H784L674 233Q655 272 631 340H627Q606 272 600 257T483 0H-4L336 516L16 1024H508L618 786Q640 745 662 674H666Q695 761 707 788L811 1024H1276L944 545Z" />
<glyph unicode="y" glyph-name="y" horiz-adv-x="1176" d="M301 -481Q241 -481 172 -471T49 -440V-119Q74 -138 123 -154T217 -170Q336 -170 375 -76L408 4L-20 1024H451L575 530Q611 392 614 344H618Q621 366 626 393T782 1024H1196L819 -29Q734 -271 609 -376T301
-481Z" />
<glyph unicode="z" glyph-name="z" horiz-adv-x="1042" d="M584 295H1006V0H25V197L485 729H68V1024H997V782L584 295Z" />
<glyph unicode="{" glyph-name="braceleft" horiz-adv-x="862" d="M762 -326Q577 -326 470 -288T316 -168T268 82V262Q268 442 119 442V666Q268 666 268 848V1016Q268 1192 314 1274T467 1395T762 1434V1210Q680 1210 641 1173T602 1047V905Q602 769 565 683T444
557V553Q527 513 564 424T602 190V63Q602 -27 639 -64T762 -102V-326Z" />
<glyph unicode="|" glyph-name="bar" horiz-adv-x="815" d="M244 -481V1567H571V-481H244Z" />
<glyph unicode="}" glyph-name="braceright" horiz-adv-x="862" d="M743 442Q594 442 594 260V92Q594 -84 548 -166T395 -287T100 -326V-102Q183 -102 221 -65T260 61V203Q260 338 296 424T418 551V555Q335 596 298 686T260 918V1044Q260 1133 224 1171T100 1210V1434Q286
1434 392 1396T546 1276T594 1026V846Q594 666 743 666V442Z" />
<glyph unicode="~" glyph-name="asciitilde" horiz-adv-x="1464" d="M1270 776Q1264 601 1177 495T946 389Q866 389 807 409T673 474Q597 518 557 518Q509 518 479 482T442 377H195Q200 558 288 662T526 766Q595 766 647 749T750 705Q797 679 836 658T913 637Q961
637 990 676T1022 776H1270Z" />
</font>
</defs>
</svg>
